<svg xmlns="http://www.w3.org/2000/svg" xmlns:ffdec="https://www.free-decompiler.com/flash" xmlns:xlink="http://www.w3.org/1999/xlink" ffdec:objectType="frame" width="419.831" height="374.6"><g transform="translate(211.081 195)"><use ffdec:characterId="495" xlink:href="#a" width="239.45" height="374.6" transform="translate(-118.1 -195)"/><use ffdec:characterId="514" xlink:href="#b" width="1169.65" height="542.05" transform="matrix(-.7501 0 0 .75 448.014 -324.075)"/><use ffdec:characterId="519" xlink:href="#c" width="1205.15" height="651.75" transform="matrix(.7501 0 0 .75 -492.856 -306.35)"/><use ffdec:characterId="522" xlink:href="#d" width="1205.15" height="558.85" transform="matrix(.7501 0 0 .75 -460.856 -436.075)"/></g><defs><use ffdec:characterId="494" xlink:href="#e" id="a" width="239.45" height="374.6"/><use ffdec:characterId="493" xlink:href="#f" id="e" width="239.45" height="374.6"/><use ffdec:characterId="497" xlink:href="#g" id="b" width="391.55" height="61.85" transform="matrix(-1 0 0 1 796.4 378)"/><use ffdec:characterId="496" xlink:href="#h" id="g" width="391.55" height="61.85"/><use ffdec:characterId="516" xlink:href="#i" id="c" width="559.7" height="62.6" transform="translate(375.65 482)"/><use ffdec:characterId="515" xlink:href="#j" id="i" width="559.7" height="62.6"/><use ffdec:characterId="521" xlink:href="#k" id="d" width="472.75" height="64" transform="translate(376.5 392)"/><use ffdec:characterId="520" xlink:href="#l" id="k" width="472.75" height="64"/><g id="f" fill-rule="evenodd"><path fill="#039" d="m207.75 48.75.55 1.5.75.75.7.8.55.7q3.6 8.6 8.05 16.6 4.1 7.3 6.7 14.9l.8 1.45q.7 1.05 1.05 2.25l.15 2.3.3.7.4.8.3.75q2.6 8.8 3.9 17.95 1.35 9.45 3.1 18.8l.3.7.4.8.3.75V138l.3.7.4.8.3.75.2 27q.2 14.55-2.2 28.5l-2 12-2.65 13.45-.35.8v.75l-.1.7-.45 1.5-.45.8q-.5 3-.35 5.95.2 4.65-3.15 7.55v.05q-2.55 6.25-7.65 11.5-3 3.05-6.55 5.6-2 1.4-4.55 1.85l-1 .75-.5.5q-25.2 4.65-51.2 6.7-13.25 1.05-25.35 5.25l8.2-1.3q27.8-3.8 55.85-4.6l37.3-1.45.7-.6.75-.2 1.5-.2v-.1l1.95.6q.65.25 1.3.65l.65.8.4.65.7 1.55v3q1.7 6.05 1.3 12.75-.3 6-.3 12l-.3.7-.4.8-.3.75V301l-.3.7-.4.8-.3.75V310l-1.15 3.1-1.5 5.1-.35.8-.15 1.45-.7 3.05-.15 1.5q-2.1 3.45-3.35 7.1-1.45 4.2-1.65 8.65l-3.1 6.3q-1.5 3.05-3.65 5.7l-.2.75-.15.7-.4 1.55-.25.75q-2 2.25-2.85 5.2-.8 2.55-2.6 4.45l-.05.1-.3.7-.45.8-.55.65-.95.85-1.05.4-1.45.35-30.05-2.15q-50.85-2.05-101.3 4.3l-9.4.7-37 1.6q-4.6.3-9.2 0l-3.3-.7-.7-.8-.5-.75-.3-.7-.1-.35-.15-.15-.75-.75-.75-.75-.25-.75-.2-.8-.05-.7v-.75l-.3-.75-.4-.8-.3-.7q.1-1.95-.25-3.85l-1.25-7.5q-.5-3.3-.5-6.65l-1.3-2.1q-.9-1.85-.8-3.95l.1-6.7-.3-.75-.4-.8-.3-.7v-6l-.45-.8-.3-.7-.2-.8-.05-.7v-.75l-.3-.75-.4-.8-.3-.7v-3.75l-.25-.75-.6-1.55-.25-.7-.6-1.55-.3-.7v-.75q.05-1.2-.5-2.25-.5-1.1-.5-2.25v-3.75q-1.2-1.7-1-3.75.45-3.9-.55-7.55-.9-3.35-1.45-6.7-1.5-2.75-1.3-6.05l.3-13.45v-6l.3-.75.4-.8.3-.7v-2.25l.1-1.5.3-1.5.6-1.5L3 246.5q-.1-1.55.3-3l1.45-6 .3-.75q0-2.35.85-4.6l3.7-10.4q1-2.95 2.95-5.25l.4-.8.15-.7.2-.75.35-.7.65-.8.75-.75.25-.75.25-.75.75-.75.75-.75.25-.75.25-.75q2-2.45 4.5-4.15 3.8-2.6 6.35-6.3l1.15-1.55 7.3-4.8q5.15-3.8 11.2-5.95l1-.8.8-.7.95-.75 2.5-.75.8-.7.7-.55 4.05-.95q3.35-.8 6.2-2.55l.75-.5q8.3-1.65 16.4-4.1l8.1-2.65.8-.7.7-.55q2.1-.5 3.95-1.6l5.15-3.55 2.4-1.6.65-.8.35-.7.25-.75.7-.8.55-.7.25-.75.25-.75.25-.75.55-.75.65-.8.55-.7.25-.75.5-1.5.5-1.5.4-1.55.1-1.45.3-.75.4-.8.3-.7v-5.25l-.45-.8q-.55-1.05-.5-2.2.1-1.2-.2-2.3-.5-1.6-1.6-2.95l-.2-.75-.4-1.45-.7-1.55-1-1.5-.45-.5-.5-.2-2.2-.65-1.55-.65q-9.15-1.05-18 2.35l-5.5 2.15-.95.75-.55.5q-21.25 9.65-42.55 18.75l-2.8.7-.1.05-.55.5-.75.2-1.5.3-2.25-.5-.95-.8-.8-.7-1.5-1.5-.25-.75-.2-.75-.05-.75v-.75l-.3-.75-.4-.8-.3-.7q-1.05-4.4-.9-9 .15-4.25-.9-8.3l-.2-1.45-.6-1.55-.9-2.05q-.6-1.15-.5-2.4l-.3-.7-.65-.85-.55-.7q-.75-2.25-.85-4.55-.2-3.2-1.9-5.95l-.5-.75-.75-2.1q-1.2-2.2-1.45-4.65l-.05-.75q-6.35-7.05-8.75-16-1.4-5.35-1.3-11l.05-3.75.3-.75.4-.8.3-.7q-.85-7 4.25-11.8l8.5-8.2.75-.15 1.5-.2V42l.7.05q6.95-4.45 14.85-7.2 7.3-2.6 15.2-3.35 38.75-6.6 75.65-20 13.3-4.8 26.7-9.25Q153.3.9 157.05 0l5 .3q4.1.15 7 2.7 2.65.55 5.15 1.75 1.9.95 3.15 2.5l.7-.1V7q6.7 1.8 9.75 8.75 1.65 3.75 4.5 6.75l.25.75.25.75.25.75q2.9 3.2 5.35 6.65 2.5 3.55 3.65 7.6 1.2 1 1.95 2.3 1.05 1.7 1.6 3.7l.2.75 1.15 1.55.8 1.45m-44.45-37.5-2.25-.3-2.25-.45q-26.9 9.55-54 18.1-19.5 6.15-39.5 10.05l-14 1.85-2.8.95-6.45 1.05q-5.7 2.9-11.8 5-4.75 1.65-9.45 3.75l-.7.8-.5.7-.35.7-.45.8-.95.75-.55.5-.75.2-1.4.3q-1.2 1.35-2.1 3l-.75.7-1 .8-.2.75-.05.75v3l-.3.7-.4.8-.3.75V77l.75 1.5.75 1.5.75 1.5 1 .8.75.7q4.4 5.45 6.95 11.8 2.4 5.95 3.05 12.2l.3.7.4.8.25.75.05.75.75.75.5.75q1.75 5.2 2.95 10.45 1.25 5.5.85 11.3l-.05.75.3.7.4.8.3.75q0 1.4.45 2.8l3.6-2.05.7-.5.75-.25 3.15-1.45 2.1-1.3 11.55-4.7q5-2.05 9.45-5.3 10.9-4.55 22.3-8.4 6.4-2.15 12.95-2.1 11.8-.5 17.75 9.15 3.4 5.55 4.25 11.85l.3.7.4.8.3.75v2.25l.1 3.75q.2 3.45-.7 6.7l-.4.8q.15 1.15-.2 2.25l-1.5 3.65q-1.65 3.35-3.05 6.85-2.05 3.25-4.85 5.9-6.5 6.2-14.65 9.85l-.95.75-.55.5-12.85 3.85-12.4 3.15-2.55 1.1-5.95 2.1-1.75.55-.95.75-.55.5-.75.25-1.75.5q-1.65 1.5-3.75 2.1-3.75 1.1-6.55 3.85l-.95.8-.5.75-.5.75q-5.45 1.85-9.55 5.95-5.5 5.45-9.95 11.55l-.1.7-.7 1.5-1 1.5q-.8 1.05-1.35 2.2l-.6.85q-.3 1.9-1.15 3.65-1.5 3.3-2.25 6.8-.65 3.15-1.85 6.05v1.5q.05 1.15-.5 2.25-.65 1.4-.55 3l.05 3-.3.7-.4.8-.3.75v2.25L12 257l-.3 1.45-.65 1.55q0 9.35.9 18.65l.95 7.6L16.05 308l.3.7.6 1.55.25.7.6 1.55.25.75V317l.3.7.4.8.3.75.15 1.45.6 2.3q.45 1.45.35 3l-.1 3 .3.7.4.8.3.75q-.15 4.15.65 8.15 1.8 8.95 3.15 18 .3 1.9.2 3.85l.45.75.3.75.2.75.05.25 4.8-.35q23.6 1.25 46.8-1 25.2-2.45 49.4-6.4 26.5.25 52.95 1.45l27 1.6 1.3-2.85.25-.7q1.6-1.7 2.1-3.85.7-2.95 2.9-5.15.6-1.95 1.65-3.7l2.85-5.3q.5-4 1.75-7.85 1.15-3.7 3.25-7.15l.05-.75.3-1.5.65-1.5q0-2.35.5-4.65.7-3.45 2.5-6.6v-6.75l.3-.75.4-.8.3-.7v-3.75l.3-.75.4-.8.3-.7v-17.25l-.55-.85q-57.5 1.35-114.3 10.9-4.05.7-7.4-1.55-1.15-.9-1.55-2.25-.6-1.9.35-3.75l.45-.75 1.85-.55-.2-.3q-.8-1.35-.7-2.9l.05-1.5.3-.75.5-.75.7-.75q28.25-15.35 61.5-15.35 18.45 0 35.25-6.4l.75-.75 2.25-2.25.75-.75.25-.75.25-.75 1.55-1.5 2.95-3 .25-.75.25-.75.75-.75.75-.75.25-.75.25-.75.75-.75.65-.65.15-3.85-.05-1.5.3-.75.4-.8.3-.7q-.15-1.2.35-2.25l1.05-2.95.6-1.55v-3l.3-.75.4-.8.3-.7v-3.75l.3-.75.4-.8.3-.7v-3.75l.3-.75.4-.8.3-.7v-3.75l.3-.75.4-.8.3-.7v-.75l.1-.75.45-1.5.45-.75v-9l.3-.75.4-.8.3-.7.05-24.75q.1-13.3-2.05-26.25l-.3-.75-.4-.8-.3-.7q-.35-4.6-1.45-9.1-1.35-5.45-1.55-11.15v-.75q-1.05-1.35-1.15-3-.2-2.3-1.15-4.5l-.7-1.5-.15-1.5-.6-2.25q-.4-1.1-.25-2.25l-.8-1.45q-.7-1.05-1.05-2.3-.3-1.1-.15-2.25-2.8-3.85-4.4-8.4Q208.9 71 205.3 67q-.3-2-1.5-3.55-1.85-2.5-2.65-5.5l-.1-.7-.55-.7-.7-.8-.7-.8-.55-.7-.25-.75-.25-.75-.25-.75-.55-.7-.7-.8-.5-1.5-.5-1.5-.5-1.5-1.4-1.6-.8-1.4-.55-1.5q-5.1-7.4-9.8-14.95-3.55-5.65-7.8-10.7l-.65.15-1-.1-2.25-.4-1-.75-1.05-.7-1.5-.7-2.45-.85-1-.8-.5-.45"/><path fill="#fff" d="m163.3 11.25.5.45 1 .8 2.45.85 1.5.7 1.05.7 1 .75 2.25.4 1 .1.65-.15q4.25 5.05 7.8 10.7 4.7 7.55 9.8 14.95l.55 1.5.8 1.4 1.4 1.6.5 1.5.5 1.5.5 1.5.7.8.55.7.25.75.25.75.25.75.55.7.7.8.7.8.55.7.1.7q.8 3 2.65 5.5Q205 65 205.3 67q3.6 4 5.35 8.85 1.6 4.55 4.4 8.4-.15 1.15.15 2.25.35 1.25 1.05 2.3l.8 1.45q-.15 1.15.25 2.25l.6 2.25.15 1.5.7 1.5q.95 2.2 1.15 4.5.1 1.65 1.15 3v.75q.2 5.7 1.55 11.15 1.1 4.5 1.45 9.1l.3.7.4.8.3.75q2.15 12.95 2.05 26.25l-.05 24.75-.3.7-.4.8-.3.75v9l-.45.75-.45 1.5-.1.75v.75l-.3.7-.4.8-.3.75v3.75l-.3.7-.4.8-.3.75v3.75l-.3.7-.4.8-.3.75v3.75l-.3.7-.4.8-.3.75v3l-.6 1.55-1.05 2.95q-.5 1.05-.35 2.25l-.3.7-.4.8-.3.75.05 1.5-.15 3.85-.65.65-.75.75-.25.75-.25.75-.75.75-.75.75-.25.75-.25.75-2.95 3-1.55 1.5-.25.75-.25.75-.75.75-2.25 2.25-.75.75q-16.8 6.4-35.25 6.4-33.25 0-61.5 15.35l-.7.75-.5.75-.3.75-.05 1.5q-.1 1.55.7 2.9l.2.3-1.85.55-.45.75q-.95 1.85-.35 3.75.4 1.35 1.55 2.25 3.35 2.25 7.4 1.55 56.8-9.55 114.3-10.9l.55.85v17.25l-.3.7-.4.8-.3.75v3.75l-.3.7-.4.8-.3.75v6.75q-1.8 3.15-2.5 6.6-.5 2.3-.5 4.65l-.65 1.5-.3 1.5-.05.75q-2.1 3.45-3.25 7.15-1.25 3.85-1.75 7.85l-2.85 5.3q-1.05 1.75-1.65 3.7-2.2 2.2-2.9 5.15-.5 2.15-2.1 3.85l-.25.7-1.3 2.85-27-1.6q-26.45-1.2-52.95-1.45-24.2 3.95-49.4 6.4-23.2 2.25-46.8 1l-4.8.35-.05-.25-.2-.75-.3-.75-.45-.75q.1-1.95-.2-3.85-1.35-9.05-3.15-18-.8-4-.65-8.15l-.3-.75-.4-.8-.3-.7.1-3q.1-1.55-.35-3l-.6-2.3-.15-1.45-.3-.75-.4-.8-.3-.7v-3.75l-.25-.75-.6-1.55-.25-.7-.6-1.55-.3-.7-3.15-21.75-.95-7.6q-.9-9.3-.9-18.65l.65-1.55.3-1.45.05-1.5v-2.25l.3-.75.4-.8.3-.7-.05-3q-.1-1.6.55-3 .55-1.1.5-2.25v-1.5q1.2-2.9 1.85-6.05.75-3.5 2.25-6.8.85-1.75 1.15-3.65l.6-.85q.55-1.15 1.35-2.2l1-1.5.7-1.5.1-.7q4.45-6.1 9.95-11.55 4.1-4.1 9.55-5.95l.5-.75.5-.75.95-.8q2.8-2.75 6.55-3.85 2.1-.6 3.75-2.1l1.75-.5.75-.25.55-.5.95-.75 1.75-.55 5.95-2.1 2.55-1.1 12.4-3.15 12.85-3.85.55-.5.95-.75q8.15-3.65 14.65-9.85 2.8-2.65 4.85-5.9 1.4-3.5 3.05-6.85l1.5-3.65q.35-1.1.2-2.25l.4-.8q.9-3.25.7-6.7l-.1-3.75v-2.25l-.3-.75-.4-.8-.3-.7q-.85-6.3-4.25-11.85-5.95-9.65-17.75-9.15-6.55-.05-12.95 2.1-11.4 3.85-22.3 8.4-4.45 3.25-9.45 5.3l-11.55 4.7-2.1 1.3-3.15 1.45-.75.25-.7.5-3.6 2.05q-.45-1.4-.45-2.8l-.3-.75-.4-.8-.3-.7.05-.75q.4-5.8-.85-11.3-1.2-5.25-2.95-10.45l-.5-.75-.75-.75-.05-.75-.25-.75-.4-.8-.3-.7q-.65-6.25-3.05-12.2-2.55-6.35-6.95-11.8l-.75-.7-1-.8-.75-1.5-.75-1.5-.75-1.5v-9.75l.3-.75.4-.8.3-.7v-3l.05-.75.2-.75 1-.8.75-.7q.9-1.65 2.1-3l1.4-.3.75-.2.55-.5.95-.75.45-.8.35-.7.5-.7.7-.8q4.7-2.1 9.45-3.75 6.1-2.1 11.8-5l6.45-1.05 2.8-.95 14-1.85q20-3.9 39.5-10.05 27.1-8.55 54-18.1l2.25.45 2.25.3"/></g><g id="h" fill-rule="evenodd"><path fill="#fff" d="M383.5 8.55q1.25 1.3 2.2 3.9l1.65 4.35q.8 3.05.8 6.4 0 2.7-.65 4.8l-.75.95q-1.9.8-7.35 2-4.7 1.05-7.05 2.65l-2.05.45q-1.05.4-1.5 1.2-.3 1.25.75 2.3l2.1 2.05 5 4.2q3.1 2.6 4.65 4.6.2.9-.85 1.85l-1.95 1.7h-1.45L367.5 44q-.5-.4-1.2 0-.5.3-.6.85l.35 3.1.35 3.1q0 1.25-.35 2.35-1 .65-3.15.6l-3.35.05-13.25 1.5-.55-.75q-.55-4.4-.45-13.9.1-9.05-.55-13.9.1-11.05.45-16.65.65-1.15 2.1-1.7l2.85-1q8.2-1.65 14-1.55l3.9-.3q5.6 0 15.45 2.75M358 10.1l-2.05.2q-1.05.05-1.7.5-1.45 2.2-1.45 5.85l.25 5.15 3.6 10.15q1.55 1.65 3.3 1.7 3.3.3 4.2-1.3 0-.85-.75-2.7t-.55-2.95q-1-12.85-1.35-14.75-.7-1.85-3.5-1.85m-66.6-3.15 2.65.85q1.65.45 2.25 1.35l.25 2.7q0 1.6-.8 2.45h-8l-7.85.25q-1.15 1.15-1.25 3.15v3.55l.4 2.1q.15 1.1 1.2 1.35l3.15-.35q4.4 0 8.95 2.45 1.7 2.75 1.3 6.15l-.75.55-6.35.45-.85 1v7.4q.55 1.55 2.85 1.45l3.7.2 2.8.35q2.2.05 2.9.5 1.3.6 1.05 2.6.05 6.35-2.25 8.1l-3-.3-3.1.3-8.4-.4h-1.2q-8.85 0-13.25-1.1-1-.9-1.25-2.75l-.25-3.15-.1-3.5q0-2.6.35-7.45l.25-7.35v-3.7q-.45-5.85 1-15.85l.85-.85 9.05-1.7q5.45-1.05 9.35-1.05l4.35.25m-54.15 2q.55 1.15-.45 4.4-.75 2.5-1.75 7.6l-1.75 7.65-3.8 13.35q-2.2 8.25-4.55 13.15l-.95.55-6.9-.1-6.8-.25q-2.3-.9-2.7-1.65l-4.1-9q-2.3-5-3.15-4.9-.95 0-3.15 5.6l-4 9.75-.95.55-6.85-.1-6.85-.25q-3.15-1.15-8.55-11.95l-6.9-14.5q-.9-2.05-2.15-6.4-1.25-4.35-2.2-6.35l-.5-1.55q-.3-.9 0-1.65l5.75-1.35q8.45-2.5 12.8-3.3.85-.25 1.3.55l.45 1.3q2.65 11.4 4.3 17 .4.35 1.7 3.9.95 2.45 3.3 2.2 1.25-2.3 1.25-3.55 2.1-4.55 3.25-12.55l2.3-7.6q.45-1.9 1.45-2.55l12.45 1.3q.9-.3 1.25.45l.5 1.4q2.6 11.4 4.25 16.95.45.4 1.75 3.95 1 2.45 3.3 2.2 1.15-2.3 1.15-3.55 2.2-4.55 3.3-12.55l2.3-7.6q.6-1.9 1.45-2.55 6.4 1.1 9.45 2m-122.3 10.9-1.45-6.5q-.25-1.15-2.35-2-2.35-.8-2.85.6 1 7.25.55 18.05.45 2.75 1.4 3.2 3.2.45 4.55-1 1.1-2.55 1.1-5.6 0-2.6-.95-6.75m4.5-11.9 1.8 1.05q1.15.6 1.6 1.3.6 3.3.6 7.15 0 4.95-1 11.55l-1.65 11.65q-1.2 6.65-3.35 10.9l-4.05 4.35-6.2-.75L101 54l-4.8-1.15q-2.6-.9-4-2.55-1.05-6.75-1-17V16.15q.45-.8.45-2.25v-2.2q0-5.65 16.85-5.65l4.65.25 6.3 1.65M29.9 4.9q6 .35 10.2 2.05l.35.75q.5 6.1-.65 14.35l-.55.65-7.9.25q-.9.45-1.45 2.3 2.85 16.45 2.85 21.4 0 5.65-1.4 10.25-.95 1.1-2.8 1.1l-1.75-.15-1.7-.1-1.15.25-12.45-2.75q-.8-.55-.8-1.95l.3-2.35q.35-4.95 2.45-12.3l3.35-12q.9-1.2.4-2.85-1-1.3-1.85-1.75H4.85l-.5-.1-.5-.9q-.75-5.35.5-15.65 1.05-.6 2.8-.7h2.8l4.35-.85q9.75-.2 15.6 1.05"/><path fill="#039" d="M383.5 8.55q-9.85-2.75-15.45-2.75l-3.9.3q-5.8-.1-14 1.55l-2.85 1q-1.45.55-2.1 1.7-.35 5.6-.45 16.65.65 4.85.55 13.9-.1 9.5.45 13.9l.55.75 13.25-1.5 3.35-.05q2.15.05 3.15-.6.35-1.1.35-2.35l-.35-3.1-.35-3.1q.1-.55.6-.85.7-.4 1.2 0l9.55 7.95h1.45l1.95-1.7q1.05-.95.85-1.85-1.55-2-4.65-4.6l-5-4.2-2.1-2.05q-1.05-1.05-.75-2.3.45-.8 1.5-1.2l2.05-.45q2.35-1.6 7.05-2.65 5.45-1.2 7.35-2l.75-.95q.65-2.1.65-4.8 0-3.35-.8-6.4l-1.65-4.35q-.95-2.6-2.2-3.9m-1.45-3.85q3.55 1.1 4.85 3.95 4.65 8.2 4.65 17.5l-.15 3.25q-.15 1.65-1.85 2.3-1.7.65-3.25 1.35-2.6.15-6.1 1.55-5.2 2.1-5.65 2.3-.85.25-.4 1.45l5.9 5.2q3.65 3.1 5.3 5.55v1.5l-5.15 4.95q-2.45.35-5.35-2.4-3.4-3-5.05-3.3l-.45.75q.55 4.45.25 5.45l-.85.65-7.4.45-7.4.35-4.8 1.1-4.9.55q-1.35-1.1-1.75-3.5l-.4-4-.45-13.35q-.45-8.65-.45-13.1 0-2.15.35-6.35l.35-6.3q0-2.8-.45-5.2 2.55-1.85 6.8-2.75l7.25-1.4 11.55-.5q4.85 0 8.4 1l6.6 1M358 10.1q2.8 0 3.5 1.85.35 1.9 1.35 14.75-.2 1.1.55 2.95t.75 2.7q-.9 1.6-4.2 1.3-1.75-.05-3.3-1.7l-3.6-10.15-.25-5.15q0-3.65 1.45-5.85.65-.45 1.7-.5l2.05-.2m-1.2 4.35q-.7 2.2-.7 4.75 0 5.4 2.7 10.1.95 0 1.05-.35l-.8-13.75q.1-1.25-1.3-1.25-.65 0-.95.5m-65.4-7.5-4.35-.25q-3.9 0-9.35 1.05l-9.05 1.7-.85.85q-1.45 10-1 15.85v3.7l-.25 7.35q-.35 4.85-.35 7.45l.1 3.5.25 3.15q.25 1.85 1.25 2.75 4.4 1.1 13.25 1.1h1.2l8.4.4 3.1-.3 3 .3q2.3-1.75 2.25-8.1.25-2-1.05-2.6-.7-.45-2.9-.5l-2.8-.35-3.7-.2q-2.3.1-2.85-1.45v-7.4l.85-1 6.35-.45.75-.55q.4-3.4-1.3-6.15-4.55-2.45-8.95-2.45l-3.15.35q-1.05-.25-1.2-1.35l-.4-2.1V17.7q.1-2 1.25-3.15l7.85-.25h8q.8-.85.8-2.45l-.25-2.7q-.6-.9-2.25-1.35l-2.65-.85m4.8-2.35q2.45 1 3.3 2.9.3 1.65 0 4.2-.35 3.05-.25 4.15-.45 1.1-1.2 1.45h-7.85q-4.95 0-7.8 1.1-1 .7-.45 1.85.75.5 2.1.6l2.3.25q4.2.85 5.05 1.25 2.7 1 3.85 3.2.8 2.1 1.5 9.75-.7 1.65-3.95 1.7-3.25.05-4.2 1.3-.35 1.4 1.15 1.75l4 .3h4q4.15 2.2 4.15 9.7l-.75 4.65q-.45 2.7-2.15 3.75l-16.5.15-16.65-.7q-1.35-.95-1.75-2.95l-.35-3.45q-.25-2.85-.25-6.05 0-2.9.3-8.7l.25-8.75-.3-7.05q0-2.3.55-6.8.6-4.55.6-6.8.35-1.5 1.9-1.65l2.9-.4q11.45-2.5 21.7-2l4.8 1.3m-58.95 4.35q-3.05-.9-9.45-2-.85.65-1.45 2.55l-2.3 7.6q-1.1 8-3.3 12.55 0 1.25-1.15 3.55-2.3.25-3.3-2.2-1.3-3.55-1.75-3.95-1.65-5.55-4.25-16.95l-.5-1.4q-.35-.75-1.25-.45l-12.45-1.3q-1 .65-1.45 2.55l-2.3 7.6q-1.15 8-3.25 12.55 0 1.25-1.25 3.55-2.35.25-3.3-2.2-1.3-3.55-1.7-3.9-1.65-5.6-4.3-17l-.45-1.3q-.45-.8-1.3-.55-4.35.8-12.8 3.3l-5.75 1.35q-.3.75 0 1.65l.5 1.55q.95 2 2.2 6.35 1.25 4.35 2.15 6.4l6.9 14.5q5.4 10.8 8.55 11.95l6.85.25 6.85.1.95-.55 4-9.75q2.2-5.6 3.15-5.6.85-.1 3.15 4.9l4.1 9q.4.75 2.7 1.65l6.8.25 6.9.1.95-.55q2.35-4.9 4.55-13.15l3.8-13.35 1.75-7.65q1-5.1 1.75-7.6 1-3.25.45-4.4m0-2.65q2.65.55 3.9 1.35.65.55.65 1.3l-.65 1.7q-.6 1.15-.5 1.9-1.05 3.8-2.45 11.95-1.15 2.2-2.3 6.95-1.1 4.75-2.05 6.9l-1.9 8.4q-.55.7-.8 2.55-.3 1.9-1.05 2.75l-1.05 3.4q-.95 1.8-2.5 2.35-12.5.35-16.55-.25-1.55.5-3.4-.7-2.1-2.8-6.2-11.25l-.2 1.15q-.65.7-.9 2.55-.25 1.9-.9 2.75l-1.2 3.4q-.85 1.8-2.45 2.35-12.45.35-16.45-.25-1.65.5-3.5-.65-1.9-2.85-4.3-7.3l-3.75-7.5q-1.1-1.6-2.7-5.25-1.55-3.65-2.85-5.4l-7.6-20.5q.45-1.45 2.55-1.7l3.45-.3q8.9-2.7 17.4-4.1 1.1 0 3.4 1.4 1 2 1.7 5.25l1.3 5.4q.75 1.2 1.2 4.25.55 3.1 1.6 4.35 1.15-1.25 1.6-3.7l.7-4.2 3.85-13.15 1-.55q12.35-.25 15.1.95h.25q1.15 0 3.5 1.4.9 2 1.65 5.25l1.25 5.4q.75 1.2 1.25 4.25.5 3.1 1.6 4.35 1.15-1.25 1.55-3.7l.75-4.2q1.55-4.25 3.8-13.15l1.05-.55 8.2 1.3q1 .55 3.95 1.1m-113.4 1.1q1.75 2.7 1.75 7.8l-.1 3.5-.15 3.65q.1 2.6-.8 6.95-.9 4.65-1 6.8-1.75 10.3-2.45 12.4-2.1 6.75-6.9 10.2l-8.75-1.1-8-1.55q-4.5-1.25-6.75-4.2-1.2-8.6-1.3-32.8 0-1.7.35-4.85l.35-4.75V6.8q2.65-2.1 7.3-2.75l8.1-.9 6.9.15 6 1.5q3.45.95 5.45 2.6m-4.4.55-6.3-1.65-4.65-.25q-16.85 0-16.85 5.65v2.2q0 1.45-.45 2.25V33.3q-.05 10.25 1 17 1.4 1.65 4 2.55L101 54l6.2 1.15 6.2.75 4.05-4.35q2.15-4.25 3.35-10.9L122.45 29q1-6.6 1-11.55 0-3.85-.6-7.15-.45-.7-1.6-1.3l-1.8-1.05m-4.5 11.9q.95 4.15.95 6.75 0 3.05-1.1 5.6-1.35 1.45-4.55 1-.95-.45-1.4-3.2.45-10.8-.55-18.05.5-1.4 2.85-.6 2.1.85 2.35 2l1.45 6.5m-2.8-3.65q-.45-1.1-1-1.1-.45 2.75-.35 6.95l.25 7.15.55.8q1.2.1 1.55-.35.75-1.75.75-3.95 0-1.9-.65-4.85l-1.1-4.65M29.9 4.9q-5.85-1.25-15.6-1.05l-4.35.85h-2.8q-1.75.1-2.8.7-1.25 10.3-.5 15.65l.5.9.5.1h10.5q.85.45 1.85 1.75.5 1.65-.4 2.85l-3.35 12Q11.35 46 11 50.95l-.3 2.35q0 1.4.8 1.95L23.95 58l1.15-.25 1.7.1 1.75.15q1.85 0 2.8-1.1 1.4-4.6 1.4-10.25 0-4.95-2.85-21.4.55-1.85 1.45-2.3l7.9-.25.55-.65q1.15-8.25.65-14.35l-.35-.75q-4.2-1.7-10.2-2.05m3.85-3.15q4.25.55 6.6 1.55 1.9.9 2.35 3.4l.35 4.55q.2 2.55-.25 7.4-.45 4.9-.25 7.15l-1.05.55h-4.3q-2.5.1-3.95 1L34.65 39q.85 6.9.85 11.65 0 5.85-1.6 9.7-1.35 1.5-3.9 1.5l-4.55-.55-7.8-.95q-4.3-.7-7.45-1.9-1.05.1-2.95-2-.45-1 .15-4.05-.25-4.85 2.8-15-.05-1.65 1-4.25 1-2.7.95-4.25.55-.9.15-2.3l-.5-.35-9.25-.55Q.6 23.8.25 20.25l-.15-6.2Q0 12.45.3 9.8L.6 6q0-2.2-.6-3.85Q.9.7 3.05.7l1.7.1L6.6.95 8.5.6l5.6-.6 6.5.4 6.35.4 6.8.95"/></g><g id="j" fill-rule="evenodd"><path fill="#039" d="m9.85.75 1.5-.3 3.9-.45q8 0 15.9 4.55 10.9 6.2 15.3 17.85 1.35 3.9 1.35 8.6-.05 6.55-3.25 17.5-1.5 4.5-4.8 7.8-3.65 3.7-8.05 4-8.55 2.25-28.8 1.8-1.1-.45-1.4-1.5L.65 42.65 0 24.5q0-13 2.3-22.55Q2.9 0 5 0l2.35.45 2.5.3m109.1-.6 5 1.35q2.5 1 3.4 3 .25 1.65 0 4.35-.35 3.1-.25 4.25-.5 1.1-1.25 1.5h-8.15q-5.1-.05-8 1.15-1.1.7-.45 1.9.7.55 2.15.65l2.35.3q4.3.85 5.2 1.25 2.85 1.05 4 3.3.85 2.15 1.6 10.1-.75 1.75-4.15 1.8-3.35.05-4.3 1.3-.35 1.45 1.2 1.85l4.15.3h4.15q4.25 2.25 4.25 10.05l-.75 4.8q-.5 2.8-2.25 3.9l-17.1.15-17.25-.75q-1.35-.95-1.8-3.05l-.35-3.55q-.25-3-.25-6.3 0-3 .3-8.95l.25-9.1-.3-7.35q0-2.3.6-6.95.55-4.75.55-7.1.35-1.55 2-1.7l3-.35Q108.35-.4 118.95.15m79.2.25 5.8-.15q3.25 1.9 3.4 7 .2 7.05.75 8.45.1 1.9-1.1 2.4l-4.75.75-4.95.45q-.75.45-.6 1.55.8 1.35 4.4 1.2l11.55.95q2.15 1.6 2.75 5.65.95 5.8 1.25 6.55l-1.05 1.1-8.75.75-8.7.6-.85.95q-.15 3.4.7 8.55l1.2 8.15q-.75 1.5-4.4 1.3l-6.05-.4-6.15-.25-6.1.65q-2.5 0-2.65-1.7l.5-21.35q0-13.1 1.65-21.05.25-1.25.15-5.25-.15-3.3.6-5.1 1.05-.75 3-1.15l3.2-.45q10.4-.9 15.2-.15m67.75 1.85Q277.75-.4 288.35.15l5 1.35q2.5 1 3.4 3 .25 1.65 0 4.35-.35 3.1-.25 4.25-.5 1.1-1.25 1.5h-8.15q-5.1-.05-8 1.15-1.1.7-.45 1.9.7.55 2.15.65l2.35.3q4.3.85 5.2 1.25 2.85 1.05 4 3.3.85 2.15 1.6 10.1-.75 1.75-4.15 1.8-3.35.05-4.3 1.3-.35 1.45 1.2 1.85l4.15.3H295q4.25 2.25 4.25 10.05l-.75 4.8q-.5 2.8-2.25 3.9l-17.1.15-17.25-.75q-1.35-.95-1.8-3.05l-.35-3.55q-.25-3-.25-6.3 0-3 .3-8.95l.25-9.1-.3-7.35q0-2.3.6-6.95.55-4.75.55-7.1.35-1.55 2-1.7l3-.35m122 .45q1.45 1.25 1.5 4.15v4.7q-.25 4.6.5 12.55l.7 12.45q0 6.3-1.4 11.1l-.55 3.8q-.4 2.25-1.5 3.3l-4.6.5q-3 .2-4.3 1.05l-1.75-.35-8.1-6.75q-4.6-4-7.25-7.7-.6-.25-.75.75l-.7 11.55q-.85.75-2.75 1-2.35.3-2.95.65l-5.4 1.1q-3.15.75-5.1 1.8-2.15-.2-2.8-2.5-.65-2.25-1-4.3-.35-3.3-.3-12.05 0-7.6-.65-11.9l.3-6.8.35-3.75.35-3.9q0-1.6-.35-2.9-.15-.75-1.4-1.05-1.3-.25-1.4-1.2-.2-1.9 1.3-2.35l9-1.8q5.55-1.35 9.2-1.4.9 1.3 1.4 3.45l.75 4.15L359.8 20q1.2 5.6 5.55 7.8 1.85 1.95 2.6 2 .5-1.75.1-4.15l-2.1-14.1-.75-9.45q.25-.85 1.55-1.9l3.35-.15q8.95 0 17.8 2.65M441.25.5l4.05.5 5.6-.45 5.4-.5q3.2 0 5.75 1 1.2.55 1.8 2-.5 1.25-.5 2.7 0 1.25.55 3.7l.45 3.75q0 1.45-.4 2.75-.45 1.5-1.4 1.8h-4.7q-.6.5-.5 2.9.75 1.05 3.1 1.75 2.4.75 3.2 2.25 1.75 3.25 2.95 8.35l2 8.75.75 5.3.5 5.5q0 3.75-1.6 6.4-2.85 1.9-7.65 2.35l-8.3.05-4.25.3-13.55-1.75-1.95-.8q-1.05-.55-1.3-1.5-1.55-6.7-1.55-13.15 0-3.25.35-6.4.15-.7 1.2-2l5.05.85 5.15 1.05q.85-.1 1.05-1.4-.55-1.65-2.7-2.3l-3.7-.95q-5.3-.95-6.65-4.35-.45-1.25-.45-2.7 0-1.2.5-3.75l.5-3.9q.45-5.65 2.15-16.9l.8-.65 8.3-.55m82.1 1.95q12.9-2.9 24.5-2.3l5.45 1.5q2.75 1.05 3.7 3.25.3 1.85 0 4.75-.4 3.4-.25 4.65-.55 1.2-1.4 1.6h-8.9q-5.55 0-8.7 1.25-1.2.8-.5 2.1.8.6 2.35.75l2.55.25 5.7 1.4q3.05 1.15 4.35 3.6.9 2.35 1.7 11-.8 1.9-4.5 1.95-3.65.05-4.65 1.45-.4 1.6 1.25 2l4.55.35h4.5q4.65 2.45 4.65 10.95l-.8 5.2q-.5 3.1-2.45 4.25l-18.65.2-18.8-.8q-1.5-1.05-1.95-3.35l-.4-3.9q-.3-3.2-.3-6.8 0-3.3.35-9.8L517 28q0-4.3-.35-7.95 0-2.55.65-7.65.6-5.15.6-7.75.4-1.65 2.2-1.8l3.25-.4m24.5 1.8-4.9-.25q-4.4 0-10.6 1.15l-10.2 1.95-.9.9q-1.7 11.35-1.15 17.95v4.1l-.3 8.35-.4 8.4.1 3.95.3 3.55q.3 2.05 1.4 3.2 4.95 1.2 14.95 1.2h1.35l9.5.45 3.55-.4 3.35.4q2.6-2.05 2.55-9.15.25-2.3-1.2-2.95-.85-.55-3.3-.6l-3.15-.4-4.15-.2q-2.6.1-3.15-1.6v-8.4l.85-1.15 7.2-.5.85-.55q.4-3.85-1.4-6.95-5.2-2.85-10.15-2.8l-3.6.4q-1.15-.3-1.35-1.5l-.4-2.35v-4.1q.05-2.25 1.35-3.5l8.85-.25h9.05q.9-1 .95-2.8l-.3-3.05q-.7-1-2.6-1.5l-2.95-1M459.3 3.4q-2.15.25-6.2-.1l-10.6.3-3.8.35q-2.3.05-3.5.8-1.35 4.05-2 11.25l-1.05 11.6.55 1.05q1.45 1.2 4.85 2 3.9.9 5.1 1.6 2.45 1.45 2.75 4.55l-.35 2.95q-.25 1.55-1.2 2.3l-5.6-1.45-1.85-.3-1.65-.45q-.55 0-1 .4-.9 2.85-.9 6.6 0 2.65.8 9 .95 1.2 3.25 1.45l3.6.7 6.3.35 6.5.25q6.55 0 11-1.55 1.7-.6 2.15-2.75l.4-3.8q-.6-11-4.45-23.5-.6-1.25-2.55-1.65-2.4-.4-3.05-.9-2.05-1.15-2.65-4.2l-.6-5.15q.7-.8 1.8-.8l1.65.2 1.6.15 1-.1q1.15-.45 1.25-2.05l.25-2.65-.4-3.55q-.3-1.95-1.4-2.9m-71.7 6.25q.2-2.3-.8-3.35-4.4-1.95-17.6-2.7-1.25.4-1.25 1.95 0 3.7.1 3.25l3.2 27.4q-.6 1.15-1.6 1l-5.95-6.8q-1.9-1.25-5.15-4.65l-2.15-12.2L356 10q-.25-2.1-1.05-3.35L352 6.3q-1.3.65-4.5 1.1-3.15.35-4.6 1.1-1.3.35-1.05 3.75-.75 5.4-.7 12.2 0 4.05.45 13.25l.25 13.25.6 1.95q.2 1 .95 1.55l13.1-2.8q1.05-.3 1.3-1.25l.45-14.2.8-1.2q.75-.5 1.5.45 3.85 7.55 11.3 13.15l2.9 2.2q1.65 1.5 3.05 1.75 2.45-.75 8.05-1 1.2-2.35 1.8-6.6.9-5.45 1.3-6.85l-.85-12.45q-.6-7.35-.5-12.45-.25-.85 0-3.55m-93.9-.7-.25-2.8q-.65-.9-2.35-1.35l-2.75-.9-4.45-.25q-4.05 0-9.75 1.05l-9.35 1.8-.85.85q-1.5 10.4-1.05 16.45v3.8l-.25 7.6q-.4 5.05-.35 7.75l.1 3.6.25 3.25q.25 1.9 1.25 2.9 4.6 1.1 13.75 1.1h1.25l8.65.45 3.3-.4q1.85-.15 3.1.4 2.35-1.85 2.3-8.35.25-2.15-1.1-2.75-.75-.5-3-.55l-2.9-.35-3.85-.2q-2.35.1-2.9-1.5V32.9l.8-1.05 6.65-.5.8-.5q.35-3.55-1.35-6.4-4.75-2.6-9.3-2.55l-3.3.35q-1.05-.25-1.2-1.35l-.4-2.15V15q.05-2.05 1.2-3.2l8.15-.25h8.35q.8-.9.8-2.6m-89.7-4-18.15-.75-2.2.4-2.15.35q-1.2.35-2 .9-.25 5.95-1.65 15.8-.4 1.8-.45 5.5-.4 4.15-.2 12.2.2 8.65-.15 12.45l.7.65 8.45.55q5.55.4 8.85.15l.5-.35q-.05-4.4-.75-10.05.1-1.05-.35-3.05-.45-2.05-.45-2.9 0-1.65 1.05-2.7l8.35-.1 8.45-.5q.55 0 1.1-.95l-.35-3.5q-.2-1.9-1.7-2.3l-14.3-1.05-1.55-.25q-.85-.25-1.15-1.05.1-1.05-.3-3-.45-2-.45-2.85 0-1.5.85-2.65l9.8-.75.7-.65V6.1l-.5-1.15m-79.7 4-.25-2.8q-.65-.9-2.35-1.35l-2.75-.9-4.45-.25q-4.05 0-9.75 1.05L95.4 6.5l-.85.85q-1.5 10.4-1.05 16.45v3.75l-.25 7.65q-.4 5.05-.35 7.75l.1 3.6.25 3.25q.25 1.9 1.25 2.9 4.6 1.1 13.75 1.1h1.25l8.65.45 3.3-.4q1.85-.15 3.1.4 2.35-1.85 2.3-8.4.25-2.1-1.1-2.7-.75-.5-3-.55l-2.9-.35-3.85-.2q-2.35.1-2.9-1.5V32.9l.8-1.05 6.65-.5.8-.5q.35-3.55-1.35-6.4-4.75-2.6-9.3-2.55l-3.3.35q-1.05-.25-1.2-1.35l-.4-2.15V15q.05-2.05 1.2-3.2l8.2-.25h8.3q.8-.9.8-2.6M44.1 36.4l.55-4.95q0-8.45-5.8-15.55Q29.6 4.6 9.4 4.45l-3.1.75q-1.65.75-1.6 2.4-1.2 5.9-1.2 13.45 0 3.7.5 11.95l.25 12.2.3 6.45q.1 3.8 1.15 6.05l13.5.65q11.6-.9 17.2-4.75 3.7-2.65 5.3-7.95l2.4-9.25M16.8 22.25q1.7-.35 4.5 2.55 1.3 2.65 1.45 7.25l.1 7.5q0 1.1.35 3.1l.35 3.15q0 1.45-.45 2.7-5.05 1.4-8.25 1.4-1.55-1.35-.65-6.4.65-3.8.8-9.6.2-9.15.4-9.85.2-.7 1.4-1.8M18 38l-.45 6.15.45.55.9.1q.5-.1.6-.65.45-2.15.25-5.45l-.25-5.75-.55-.75q-.8 2.15-.95 5.8"/><path fill="#fff" d="M16.8 22.25q-1.2 1.1-1.4 1.8-.2.7-.4 9.85-.15 5.8-.8 9.6-.9 5.05.65 6.4 3.2 0 8.25-1.4.45-1.25.45-2.7l-.35-3.15q-.35-2-.35-3.1l-.1-7.5q-.15-4.6-1.45-7.25-2.8-2.9-4.5-2.55M44.1 36.4l-2.4 9.25q-1.6 5.3-5.3 7.95-5.6 3.85-17.2 4.75L5.7 57.7q-1.05-2.25-1.15-6.05l-.3-6.45L4 33q-.5-8.25-.5-11.95 0-7.55 1.2-13.45-.05-1.65 1.6-2.4l3.1-.75q20.2.15 29.45 11.45 5.8 7.1 5.8 15.55l-.55 4.95m80.2-27.45q0 1.7-.8 2.6h-8.3l-8.2.25q-1.15 1.15-1.2 3.2v3.75l.4 2.15q.15 1.1 1.2 1.35l3.3-.35q4.55-.05 9.3 2.55 1.7 2.85 1.35 6.4l-.8.5-6.65.5-.8 1.05v7.65q.55 1.6 2.9 1.5l3.85.2 2.9.35q2.25.05 3 .55 1.35.6 1.1 2.7.05 6.55-2.3 8.4-1.25-.55-3.1-.4l-3.3.4-8.65-.45h-1.25q-9.15 0-13.75-1.1-1-1-1.25-2.9L93 46.55l-.1-3.6q-.05-2.7.35-7.75l.25-7.65V23.8q-.45-6.05 1.05-16.45l.85-.85 9.35-1.8q5.7-1.05 9.75-1.05l4.45.25 2.75.9q1.7.45 2.35 1.35l.25 2.8m79.7-4 .5 1.15v8.4l-.7.65-9.8.75q-.85 1.15-.85 2.65 0 .85.45 2.85.4 1.95.3 3 .3.8 1.15 1.05l1.55.25 14.3 1.05q1.5.4 1.7 2.3l.35 3.5q-.55.95-1.1.95l-8.45.5-8.35.1Q194 35.15 194 36.8q0 .85.45 2.9.45 2 .35 3.05.7 5.65.75 10.05l-.5.35q-3.3.25-8.85-.15l-8.45-.55-.7-.65q.35-3.8.15-12.45-.2-8.05.2-12.2.05-3.7.45-5.5 1.4-9.85 1.65-15.8.8-.55 2-.9l2.15-.35 2.2-.4 18.15.75m89.7 4q0 1.7-.8 2.6h-8.35l-8.15.25q-1.15 1.15-1.2 3.2v3.75l.4 2.15q.15 1.1 1.2 1.35l3.3-.35q4.55-.05 9.3 2.55 1.7 2.85 1.35 6.4l-.8.5-6.65.5-.8 1.05v7.65q.55 1.6 2.9 1.5l3.85.2 2.9.35q2.25.05 3 .55 1.35.6 1.1 2.75.05 6.5-2.3 8.35-1.25-.55-3.1-.4l-3.3.4-8.65-.45h-1.25q-9.15 0-13.75-1.1-1-1-1.25-2.9l-.25-3.25-.1-3.6q-.05-2.7.35-7.75l.25-7.6v-3.8q-.45-6.05 1.05-16.45l.85-.85 9.35-1.8q5.7-1.05 9.75-1.05l4.45.25 2.75.9q1.7.45 2.35 1.35l.25 2.8m93.9.7q-.25 2.7 0 3.55-.1 5.1.5 12.45l.85 12.45q-.4 1.4-1.3 6.85-.6 4.25-1.8 6.6-5.6.25-8.05 1-1.4-.25-3.05-1.75l-2.9-2.2q-7.45-5.6-11.3-13.15-.75-.95-1.5-.45l-.8 1.2-.45 14.2q-.25.95-1.3 1.25l-13.1 2.8q-.75-.55-.95-1.55l-.6-1.95-.25-13.25q-.45-9.2-.45-13.25-.05-6.8.7-12.2-.25-3.4 1.05-3.75 1.45-.75 4.6-1.1 3.2-.45 4.5-1.1l2.95.35q.8 1.25 1.05 3.35l.4 3.55 2.15 12.2q3.25 3.4 5.15 4.65l5.95 6.8q1 .15 1.6-1l-3.2-27.4q-.1.45-.1-3.25 0-1.55 1.25-1.95 13.2.75 17.6 2.7 1 1.05.8 3.35m71.7-6.25q1.1.95 1.4 2.9l.4 3.55-.25 2.65q-.1 1.6-1.25 2.05l-1 .1-1.6-.15-1.65-.2q-1.1 0-1.8.8l.6 5.15q.6 3.05 2.65 4.2.65.5 3.05.9 1.95.4 2.55 1.65 3.85 12.5 4.45 23.5l-.4 3.8q-.45 2.15-2.15 2.75-4.45 1.55-11 1.55l-6.5-.25-6.3-.35-3.6-.7q-2.3-.25-3.25-1.45-.8-6.35-.8-9 0-3.75.9-6.6.45-.4 1-.4l1.65.45 1.85.3 5.6 1.45q.95-.75 1.2-2.3l.35-2.95q-.3-3.1-2.75-4.55-1.2-.7-5.1-1.6-3.4-.8-4.85-2l-.55-1.05L433.2 16q.65-7.2 2-11.25 1.2-.75 3.5-.8l3.8-.35 10.6-.3q4.05.35 6.2.1m88.55.85 2.95 1q1.9.5 2.6 1.5l.3 3.05q-.05 1.8-.95 2.8h-9.05l-8.85.25q-1.3 1.25-1.35 3.5v4.1l.4 2.35q.2 1.2 1.35 1.5l3.6-.4q4.95-.05 10.15 2.8 1.8 3.1 1.4 6.95l-.85.55-7.2.5-.85 1.15v8.4q.55 1.7 3.15 1.6l4.15.2 3.15.4q2.45.05 3.3.6 1.45.65 1.2 2.95.05 7.1-2.55 9.15l-3.35-.4-3.55.4-9.5-.45h-1.35q-10 0-14.95-1.2-1.1-1.15-1.4-3.2l-.3-3.55-.1-3.95.4-8.4.3-8.35v-4.1q-.55-6.6 1.15-17.95l.9-.9 10.2-1.95Q538.55 4 542.95 4l4.9.25"/></g><g id="l" fill-rule="evenodd"><path fill="#039" d="M466.95 16.95q-.5 1.5-1.35 1.75H461q-.6.5-.55 2.85.7 1 3.05 1.7 2.35.75 3.15 2.25 1.7 3.15 2.9 8.15l1.95 8.6.75 5.15.5 5.4q-.05 3.65-1.6 6.25-2.8 1.8-7.5 2.3l-8.1.1-4.15.2L438.1 60l-1.9-.8q-1.05-.55-1.3-1.5-1.5-6.55-1.5-12.85 0-3.2.35-6.3.15-.65 1.15-1.95l4.95.85 5.05 1.05q.9-.1 1.05-1.4-.55-1.6-2.6-2.2l-3.65-.95q-5.25-.9-6.6-4.3-.4-1.2-.35-2.65 0-1.15.45-3.6.55-2.55.55-3.85Q434.1 14 435.8 3l.8-.7 8.1-.5 4 .5 5.45-.45 5.3-.5q3.1 0 5.65 1 1.2.55 1.75 1.95-.5 1.25-.5 2.65 0 1.2.5 3.65l.5 3.65q0 1.45-.4 2.7m-3.2-9.45q-.3-1.9-1.35-2.85-2.1.25-6.05-.05-2.3.5-10.4.2l-3.75.35q-2.3.1-3.4.85-1.35 3.95-1.95 11.05l-1.05 11.3.55 1.05q1.4 1.15 4.75 1.9 3.75.95 5 1.65 2.4 1.35 2.7 4.4l-.4 2.9q-.15 1.5-1.1 2.2l-5.5-1.35-1.85-.3-1.6-.45q-.5 0-1 .4-.85 2.75-.85 6.45 0 2.55.8 8.85.9 1.15 3.2 1.45l3.5.6 6.15.35 6.35.25q6.4 0 10.75-1.5 1.7-.6 2.15-2.7.15-1.9.45-3.7-.65-10.8-4.45-23.05-.55-1.25-2.5-1.55-2.35-.45-2.95-.9-2-1.15-2.55-4.15l-.65-5.05q.7-.8 1.8-.8l1.55.25 1.65.15.95-.1q1.15-.45 1.2-2 .1-2.25.3-2.6l-.45-3.5m-78.15 5.15q-.3 4.5.45 12.35.75 8.9.75 12.2 0 6.15-1.4 10.9l-.6 3.7q-.35 2.2-1.45 3.25l-4.5.5q-2.95.15-4.2 1l-1.7-.3L365 49.6q-4.6-3.95-7.1-7.5-.65-.3-.85.7l-.55 11.35q-.9.7-2.8 1-2.3.2-2.8.55l-5.35 1.1q-3.05.75-5 1.75-2.2-.2-2.75-2.4l-1-4.25q-.35-3.3-.25-11.8 0-7.4-.65-11.7l.3-6.7.35-3.65.3-3.75-.3-2.85q-.2-.75-1.4-1.1-1.3-.25-1.35-1.15-.2-1.85 1.3-2.3l8.8-1.75q5.45-1.35 9-1.4.9 1.25 1.35 3.4l.8 4.1 1.5 9.75q1.15 5.45 5.45 7.6 1.75 1.95 2.55 2 .5-1.75.05-4.15l-2-13.8-.8-9.2q.3-.85 1.55-1.95l3.3-.05q8.75-.05 17.45 2.5 1.4 1.25 1.5 4.15v4.55m-2.55-5.1q-4.35-1.9-17.3-2.7-1.25.45-1.2 1.95-.05 3.6.05 3.15l3.15 26.9q-.6 1.1-1.6.95-1.8-2.35-5.8-6.65-1.9-1.25-5.05-4.55l-2.1-12-.35-3.45q-.3-2-1.05-3.25-1.05-.45-2.9-.35-1.3.6-4.4 1-3.15.4-4.55 1.1-1.3.35-1 3.7-.75 5.3-.75 12 0 4 .45 13 .35 8.45.3 13l.55 1.9q.2.95.95 1.55l12.85-2.85q1-.25 1.3-1.15l.45-13.95.8-1.15q.7-.55 1.4.4 3.8 7.45 11.1 12.9l2.8 2.2q1.7 1.4 3 1.7l7.9-1q1.15-2.3 1.8-6.45l1.25-6.75-.85-12.25q-.5-7.15-.45-12.15-.25-.8 0-3.5.25-2.25-.75-3.25m-88.9 1.5L292.1 7.9l-7-1.85-5.1-.25q-18.6 0-18.6 6.25v2.45q-.05 1.6-.55 2.5v18.9q-.05 11.35 1.1 18.85 1.55 1.8 4.5 2.8l5.25 1.2 6.9 1.3 6.85.9 4.4-4.8q2.45-4.75 3.8-12.1l1.8-12.9q1.05-7.25 1.05-12.75 0-4.25-.6-7.85l-1.75-1.5m-3.2-4.65q3.8 1.05 6 2.95 1.9 2.9 1.95 8.55l-.1 3.9-.1 3.95q.05 2.95-.9 7.75-1.05 5.1-1.15 7.55-1.95 11.3-2.7 13.7-2.35 7.4-7.6 11.25-3.65 0-9.65-1.2l-8.9-1.7q-5-1.45-7.5-4.7-1.35-9.5-1.4-36.25-.05-1.8.35-5.35l.4-5.3V6.65q2.95-2.35 8.05-3.1l9-.95 7.6.2 6.65 1.6m-6.9 12.65q-.45-1.3-1.15-1.25-.45 3.05-.4 7.7l.3 7.9.6.9q1.3.1 1.7-.4.85-1.95.85-4.35 0-2.15-.65-5.4l-1.25-5.1m3.1 4.05q1 4.5 1.05 7.4 0 3.4-1.2 6.2-1.5 1.6-5.1 1.15-1-.5-1.5-3.55.5-12-.65-20 .55-1.55 3.15-.6 2.35.85 2.6 2.15l1.65 7.25m-78.7-14.35-7-1.85-5.1-.25q-18.65 0-18.65 6.25v2.45q0 1.6-.5 2.5V34.8q-.05 11.3 1.1 18.8 1.55 1.8 4.5 2.8l5.25 1.2 6.9 1.3q4.05.95 6.85.9l4.4-4.8q2.45-4.75 3.8-12.1l1.75-12.9q1.1-7.25 1.1-12.75 0-4.25-.65-7.85-.5-.8-1.7-1.5l-2.05-1.15m6.7 11.9-.1 4q.05 2.9-.9 7.7-1.05 5.1-1.15 7.55-1.95 11.3-2.7 13.7-2.35 7.4-7.6 11.25-3.7 0-9.7-1.2L184.1 60q-5-1.5-7.45-4.75-1.35-9.5-1.4-36.25-.05-1.8.35-5.35l.4-5.3V5.5q2.9-2.35 8.05-3.1l8.95-.95 7.65.2 6.65 1.6q3.8 1.05 6 2.95 1.9 2.9 1.95 8.55l-.1 3.9m-11.85 14.9q-1.45 1.6-5.05 1.15-1-.5-1.5-3.55.5-12-.65-19.95.55-1.55 3.15-.65 2.35.85 2.6 2.15l1.65 7.25q1 4.5 1.05 7.4-.05 3.4-1.25 6.2m-4.45-11.2.3 7.9.6.9q1.3.1 1.7-.4.85-1.95.85-4.35 0-2.1-.65-5.35l-1.25-5.15q-.45-1.3-1.15-1.25-.5 3.05-.4 7.7m-70.4 14.4q-.2-1-1.6-1.05-7-.55-21.05-.35l-1.25-.9q-2.05-4.35-3-11.6l-1.35-12.2q-.3-1.3-1.6-1.45L96.1 9l-2.45-.1q-2.65 0-3.9 1.35-2.2 10.5-1.8 17.6.8 14.75 0 24.1-.05.95.9 1.05l1.7.1q3.4-.45 10.8-.2l10.55-.4 7.2-.2 7.2.15.75-.65q.7-2.85.9-7.5l.5-7.55m2.2-3.2q-.5 14.5-1.55 21.85-.1 1-1.5 1.3-13.5-.5-33.3.8l-7.2.35q-1.3-.3-1.45-1.75-.05-3.65.2-10.75l.3-10.55-.25-6.15-.25-6.15q0-2.5.95-8 .85-5 .7-8.05.15-1.3 1.35-1.4l2.4-.25 2.85-.15 3.25-.2q2.25 0 3.85.75 1.65 2.55 2.1 7.3l.6 7.9.85 4.85q.5 2.75 1.5 4.65l1.15.85 22.45.3q.7.45 1 2.5m-89.9-2.25q-.2-1.05-1.8-1.8l-3.35-.15q-2.15 0-2.95-1.2.9-10.7.9-14.4l-.4-7.15-1.05-1.15q-4.4-1.9-10.5-1.9l-8.95.6-8.95.65-.6.45q-.3 1.7-.3 4.6l-.15 4.7q.4 5.45.05 19.4-.3 12.35.85 19.45.8 1.35 3.45 1.55l4.05.5 4.9.05 24-1.55q1.55-.2 1.95-1.7.55-2.95.6-6.35-.05-3.9-1.75-14.6m3.65 4.4q1.05 11.95.35 20-.55.95-3.45 1.75L26.65 58l-14.45.9-9.1-.6q-1.7-.25-2.2-1.85Q-.05 47.7 0 36l.2-15.1.05-15.4.25-3.15Q.7.65 1.8 0l2.35.85 9.35-.4L22.95 0l8.8.65q2.85 1.85 3.9 4.2.5 1.45.5 3.45V12q-.25 4.3 0 12.75.6.7 2.55.75 1.85.15 2.55.9 1.75 1.55 2.25 4.15l.9 5.15M27.6 12.3l-.4 4.85q-.4 3.2-.45 4.7-.7 1.9-1.9 2.05-.85-.4-2.25.3l-1.7.75q-.9-.05-1.35-1.25 0-4.4.8-13.05L20 8.9q-.2-.95.35-1.6 1.75-1.25 3.7-1.25 2.15 0 2.9 1.95.65 1.8.65 4.3m-3-1.85q-.3-.55-.85-.45-2 3.25-1.3 9.7.85 1.05 1.3.55 1.45-4.2 1.45-8.9l-.6-.9m-11.75 21.7q.7 0 2.2.75l1.95 1 1.35 1.8q.1 4.15 1.45 12.35-.9 1.15-3.35 1.35-2.75.3-3.6 1-2.4.45-2.5-1.45-.35-2.85.4-8.05.7-5.25.5-7.8.7-.95 1.6-.95m3.6 13.5-.15-1.9q-.2-.85 0-3.35.15-2.15-.8-3.25-1.1-.8-1.35.4-.4 1.15-1.1 8.25.1.9 2.2.95 1.05 0 1.2-1.1"/><path fill="#fff" d="m463.75 7.5.45 3.5q-.2.35-.3 2.6-.05 1.55-1.2 2l-.95.1-1.65-.15-1.55-.25q-1.1 0-1.8.8l.65 5.05q.55 3 2.55 4.15.6.45 2.95.9 1.95.3 2.5 1.55 3.8 12.25 4.45 23.05-.3 1.8-.45 3.7-.45 2.1-2.15 2.7-4.35 1.5-10.75 1.5l-6.35-.25-6.15-.35-3.5-.6q-2.3-.3-3.2-1.45-.8-6.3-.8-8.85 0-3.7.85-6.45.5-.4 1-.4l1.6.45 1.85.3 5.5 1.35q.95-.7 1.1-2.2l.4-2.9q-.3-3.05-2.7-4.4-1.25-.7-5-1.65-3.35-.75-4.75-1.9l-.55-1.05 1.05-11.3q.6-7.1 1.95-11.05 1.1-.75 3.4-.85l3.75-.35q8.1.3 10.4-.2 3.95.3 6.05.05 1.05.95 1.35 2.85m-169.6 1.55 1.75 1.5q.6 3.6.6 7.85 0 5.5-1.05 12.75l-1.8 12.9q-1.35 7.35-3.8 12.1l-4.4 4.8-6.85-.9-6.9-1.3-5.25-1.2q-2.95-1-4.5-2.8-1.15-7.5-1.1-18.85V17q.5-.9.55-2.5v-2.45q0-6.25 18.6-6.25l5.1.25 7 1.85 2.05 1.15m88.9-1.5q1 1 .75 3.25-.25 2.7 0 3.5-.05 5 .45 12.15l.85 12.25-1.25 6.75q-.65 4.15-1.8 6.45l-7.9 1q-1.3-.3-3-1.7l-2.8-2.2q-7.3-5.45-11.1-12.9-.7-.95-1.4-.4l-.8 1.15-.45 13.95q-.3.9-1.3 1.15l-12.85 2.85q-.75-.6-.95-1.55l-.55-1.9q.05-4.55-.3-13-.45-9-.45-13 0-6.7.75-12-.3-3.35 1-3.7 1.4-.7 4.55-1.1 3.1-.4 4.4-1 1.85-.1 2.9.35.75 1.25 1.05 3.25l.35 3.45 2.1 12q3.15 3.3 5.05 4.55 4 4.3 5.8 6.65 1 .15 1.6-.95l-3.15-26.9q-.1.45-.05-3.15-.05-1.5 1.2-1.95 12.95.8 17.3 2.7m-174.6-.8 2.05 1.15q1.2.7 1.7 1.5.65 3.6.65 7.85 0 5.5-1.1 12.75L210 42.9q-1.35 7.35-3.8 12.1l-4.4 4.8q-2.8.05-6.85-.9l-6.9-1.3-5.25-1.2q-2.95-1-4.5-2.8-1.15-7.5-1.1-18.8V15.85q.5-.9.5-2.5V10.9q0-6.25 18.65-6.25l5.1.25 7 1.85m78.7 14.35-1.65-7.25q-.25-1.3-2.6-2.15-2.6-.95-3.15.6 1.15 8 .65 20 .5 3.05 1.5 3.55 3.6.45 5.1-1.15 1.2-2.8 1.2-6.2-.05-2.9-1.05-7.4M203.3 33.55q1.2-2.8 1.25-6.2-.05-2.9-1.05-7.4l-1.65-7.25q-.25-1.3-2.6-2.15-2.6-.9-3.15.65 1.15 7.95.65 19.95.5 3.05 1.5 3.55 3.6.45 5.05-1.15m-74.85 3.2-.5 7.55q-.2 4.65-.9 7.5l-.75.65-7.2-.15-7.2.2-10.55.4q-7.4-.25-10.8.2l-1.7-.1q-.95-.1-.9-1.05.8-9.35 0-24.1-.4-7.1 1.8-17.6Q91 8.9 93.65 8.9l2.45.1 2.5.2q1.3.15 1.6 1.45l1.35 12.2q.95 7.25 3 11.6l1.25.9q14.05-.2 21.05.35 1.4.05 1.6 1.05m-87.7-5.45q1.7 10.7 1.75 14.6-.05 3.4-.6 6.35-.4 1.5-1.95 1.7l-24 1.55-4.9-.05-4.05-.5q-2.65-.2-3.45-1.55-1.15-7.1-.85-19.45.35-13.95-.05-19.4l.15-4.7q0-2.9.3-4.6l.6-.45 8.95-.65 8.95-.6q6.1 0 10.5 1.9l1.05 1.15.4 7.15q0 3.7-.9 14.4.8 1.2 2.95 1.2l3.35.15q1.6.75 1.8 1.8m-13.15-19q0-2.5-.65-4.3-.75-1.95-2.9-1.95-1.95 0-3.7 1.25-.55.65-.35 1.6l.35 1.75q-.8 8.65-.8 13.05.45 1.2 1.35 1.25l1.7-.75q1.4-.7 2.25-.3 1.2-.15 1.9-2.05.05-1.5.45-4.7l.4-4.85M12.85 32.15q-.9 0-1.6.95.2 2.55-.5 7.8-.75 5.2-.4 8.05.1 1.9 2.5 1.45.85-.7 3.6-1 2.45-.2 3.35-1.35-1.35-8.2-1.45-12.35L17 33.9l-1.95-1q-1.5-.75-2.2-.75"/></g></defs></svg>